<?xml version="1.0" encoding="UTF-8" standalone="no"?>
<!DOCTYPE svg PUBLIC "-//W3C//DTD SVG 1.1//EN" "http://www.w3.org/Graphics/SVG/1.1/DTD/svg11.dtd">
<svg width="100%" height="100%" viewBox="0 0 841 841" version="1.1" xmlns="http://www.w3.org/2000/svg" xmlns:xlink="http://www.w3.org/1999/xlink" xml:space="preserve" xmlns:serif="http://www.serif.com/" style="fill-rule:evenodd;clip-rule:evenodd;stroke-linejoin:round;stroke-miterlimit:2;">
    <g transform="matrix(6.12323e-17,1,-1,6.12323e-17,16800.4,-13468.1)">
        <path d="M14308.3,16170.2L14308.3,16590.4C14308.3,16706.3 14214.2,16800.4 14098.3,16800.4L13678.2,16800.4C13562.2,16800.4 13468.1,16706.3 13468.1,16590.4L13468.1,16170.2C13468.1,16054.3 13562.2,15960.2 13678.2,15960.2L14098.3,15960.2C14214.2,15960.2 14308.3,16054.3 14308.3,16170.2Z" style="fill:rgb(71,163,251);"/>
    </g>
    <g transform="matrix(1.41207,0,0,1.10102,-17571.4,-4206.34)">
        <g transform="matrix(1.2257,0,0,1.57197,12120.9,3591.62)">
            <path d="M492.5,219.52C501.12,211.85 514.26,210.79 524.59,215.4C531.78,218.33 536.95,224.33 542.54,229.46C552.41,239.57 562.56,249.41 572.34,259.62C581.19,268.48 587.4,280.3 588.41,292.88C589.79,298.46 588.27,304.11 587.68,309.68C583.51,326.77 574.81,342.39 564.69,356.64C561.11,361.48 557.56,366.43 552.96,370.37C540.3,357.93 527.84,345.27 515.25,332.75C505.84,323.49 496.94,313.62 486.29,305.73C470.15,293.08 450.97,285.18 431.57,279.05C444.62,265.27 458.99,252.82 472.25,239.25C478.99,232.67 485.4,225.73 492.5,219.52Z" style="fill:white;fill-rule:nonzero;"/>
        </g>
        <g transform="matrix(1.2257,0,0,1.57197,12120.9,3591.62)">
            <path d="M375.08,332.15C381.84,325.8 390.84,322.12 399.98,321.04C404.66,320.95 409.36,320.9 414.04,321.1C419.31,321.92 424.47,323.45 429.33,325.65C446.78,332.9 463.35,342.99 476.34,356.84C477.34,357.59 477.34,359.41 476.34,360.18C462.32,374.21 448.23,388.18 434.24,402.23C417.5,417.98 404.95,437.73 395.55,458.58C393.56,462.78 392.25,467.29 389.81,471.27C375.09,456.3 360.31,441.38 345.53,426.48C341.01,421.63 335.73,417.2 332.94,411.05C325.53,396.66 328,377.23 340.24,366.24C351.73,354.75 363.21,343.24 375.08,332.15Z" style="fill:white;fill-rule:nonzero;"/>
        </g>
        <g transform="matrix(1.2257,0,0,1.57197,12120.9,3591.62)">
            <path d="M638.36,322.11C651.72,334.91 664.58,348.24 677.75,361.25C682.13,365.87 687.3,369.93 690.32,375.65C698.4,389.89 696.04,409.66 683.87,420.88C670.97,433.32 658.48,446.17 645.69,458.72C630.74,472.32 607.52,475.04 589.37,466.62C574.09,459.76 559.51,450.81 547.56,439C562.37,424.67 577.2,410.35 591.75,395.76C606.45,381.64 618.61,364.9 627.65,346.64C631.91,338.77 634.55,330.18 638.36,322.11Z" style="fill:white;fill-rule:nonzero;"/>
        </g>
        <g transform="matrix(1.2257,0,0,1.57197,12120.9,3591.62)">
            <path d="M473.43,428.96C488.42,443.84 502.67,459.45 517.74,474.27C525.11,481.99 533.42,488.76 542.28,494.71C555.61,503.89 570.69,510.01 585.84,515.44C572.97,528.71 559.84,541.74 546.62,554.68C538.64,561.41 532.03,570.5 521.67,573.71C513.21,576.26 503.74,576.17 495.64,572.39C490.78,570.2 486.4,567.05 482.53,563.42C473.6,555.04 465.16,546.16 456.38,537.63C450.07,531.37 443.98,524.53 440.87,516.06C437.52,508.52 437.68,500.13 438.19,492.07C441.5,473.37 451.27,456.55 462.37,441.41C465.58,436.84 469.5,432.89 473.43,428.96Z" style="fill:white;fill-rule:nonzero;"/>
        </g>
    </g>
</svg>
